HIERARCHY
ROOT hip
{
	OFFSET 0.000000 0.000000 0.000000 
	CHANNELS 6 Xposition Yposition Zposition Xrotation Zrotation Yrotation
	JOINT abdomen
	{
		OFFSET 0.000000 3.402643 0.000000 
		CHANNELS 3 Xrotation Zrotation Yrotation
		JOINT chest
		{
			OFFSET 0.000000 8.438565 -0.680529 
			CHANNELS 3 Xrotation Zrotation Yrotation
			JOINT neck
			{
				OFFSET 0.000000 10.207942 -0.272212 
				CHANNELS 3 Xrotation Zrotation Yrotation
				JOINT head
				{
					OFFSET 0.000000 3.130431 0.000000 
					CHANNELS 3 Xrotation Zrotation Yrotation
					End Site
					{
						OFFSET 0.000000 3.130435 0.000000 
					}
				}
			}
			JOINT lCollar
			{
				OFFSET 3.470700 6.669187 -0.816635 
				CHANNELS 3 Yrotation Zrotation Xrotation
				JOINT lShldr
				{
					OFFSET 3.198488 0.000000 0.000000 
					CHANNELS 3 Zrotation Yrotation Xrotation
					JOINT lForeArm
					{
						OFFSET 10.139888 0.000000 0.000000 
						CHANNELS 3 Yrotation Zrotation Xrotation
						JOINT lHand
						{
							OFFSET 8.370511 0.000000 0.000000 
							CHANNELS 3 Zrotation Yrotation Xrotation
							End Site
							{
								OFFSET 4.083176 0.000000 0.000000 
							}
						}
					}
				}
			}
			JOINT rCollar
			{
				OFFSET -3.470700 6.669187 -0.816635 
				CHANNELS 3 Yrotation Zrotation Xrotation
				JOINT rShldr
				{
					OFFSET -3.198488 0.000000 0.000000 
					CHANNELS 3 Zrotation Yrotation Xrotation
					JOINT rForeArm
					{
						OFFSET -10.139888 0.000000 0.000000 
						CHANNELS 3 Yrotation Zrotation Xrotation
						JOINT rHand
						{
							OFFSET -8.370511 0.000000 0.000000 
							CHANNELS 3 Zrotation Yrotation Xrotation
							End Site
							{
								OFFSET -4.083176 0.000000 0.000000 
							}
						}
					}
				}
			}
		}
	}
	JOINT lThigh
	{
		OFFSET 5.308129 -1.633274 1.361059 
		CHANNELS 3 Xrotation Zrotation Yrotation
		JOINT lShin
		{
			OFFSET -2.041588 -20.007561 0.000000 
			CHANNELS 3 Xrotation Zrotation Yrotation
			JOINT lFoot
			{
				OFFSET 0.000000 -19.190928 -1.224953 
				CHANNELS 3 Xrotation Yrotation Zrotation
				End Site
				{
					OFFSET 0.000000 -2.449906 4.627600 
				}
			}
		}
	}
	JOINT rThigh
	{
		OFFSET -5.308129 -1.633274 1.361059 
		CHANNELS 3 Xrotation Zrotation Yrotation
		JOINT rShin
		{
			OFFSET 2.041588 -20.007561 0.000000 
			CHANNELS 3 Xrotation Zrotation Yrotation
			JOINT rFoot
			{
				OFFSET 0.000000 -19.190928 -1.224953 
				CHANNELS 3 Xrotation Yrotation Zrotation
				End Site
				{
					OFFSET 0.000000 -2.449906 4.627600 
				}
			}
		}
	}
}
MOTION
Frames: 14
Frame Time: 0.033333
0.340061 37.440327 0.340061 -3.957852 -2.143318 18.019247 25.241829 6.438573 -16.301588 -4.619140 0.009444 7.317167 2.631045 -4.952758 7.525695 10.524219 0.508720 -0.030344 8.037738 -8.395148 -18.240543 -48.860283 -19.180033 26.743967 -82.854279 -3.153395 1.172068 32.686787 1.084398 -71.491425 12.647678 0.616139 -17.923574 83.988403 21.269562 -8.892112 52.106853 2.752792 1.908454 77.656387 41.529533 114.219666 -49.360687 11.219023 6.839075 70.545120 1.595039 -4.644427 -20.365656 5.416693 -1.928942 -25.698885 -16.428627 -25.822275 86.441345 -2.763418 4.602457 -40.765717 -8.797723 2.445978 
0.340061 43.003700 0.340061 -8.581771 -2.394792 36.308239 25.390310 6.473425 -16.284025 -4.179680 -0.046788 7.115142 -12.793475 -5.621315 18.288330 10.524219 0.508720 -0.030344 19.759987 -15.077813 -25.000000 -36.906086 -3.160505 44.940159 -89.719589 -3.189184 0.981200 41.207829 -6.786423 -83.240723 22.802750 -5.322508 -25.000000 88.245239 -5.004646 -22.990294 40.041264 2.492637 2.128023 77.656387 41.529533 114.219666 -41.352852 12.468890 6.560962 63.608658 1.098853 -4.534051 -21.038771 4.898708 -4.338711 -21.148565 -12.259617 -27.170380 74.530434 -1.904260 4.646520 -30.815857 -9.375005 1.476429 
0.340061 48.916882 0.340061 -13.002430 -1.474880 54.500568 25.102688 6.394765 -16.323036 -5.058585 0.056513 7.007900 -21.616392 -3.084081 24.062977 10.524219 0.508720 -0.030344 25.573027 -18.936592 -25.000000 -28.040815 3.674687 57.116123 -88.996391 -3.190385 0.996169 46.726299 -10.361354 -90.426575 28.130568 -8.278152 -25.000000 95.799706 -25.315916 -34.708241 28.499458 2.210725 2.274557 77.656387 41.529533 114.219666 -33.182732 13.847462 6.429350 56.553177 0.621537 -4.394426 -21.725927 4.695219 -6.888710 -16.638369 -7.926365 -28.181690 62.410114 -1.035091 4.496904 -20.757999 -9.921556 0.469872 
0.340061 54.974400 0.340061 -16.914434 -0.373727 72.418335 24.390854 6.185428 -16.401943 -7.275161 0.332684 6.973247 -24.904367 0.370475 25.096609 10.524219 0.508720 -0.030344 27.008812 -18.325096 -25.000000 -27.421761 9.039345 63.114300 -80.706657 -3.142738 1.223067 48.385822 -11.244673 -92.540131 29.866194 -7.440132 -25.000000 102.137779 -39.374100 -43.140541 19.013807 1.960967 2.354952 77.656387 41.529533 114.219666 -25.252632 15.057758 6.520168 49.721390 0.174354 -4.175614 -22.363194 4.883253 -9.255762 -12.488239 -3.718671 -28.828751 50.696774 -0.253646 4.182149 -10.965932 -10.431433 -0.516652 
0.340061 61.020844 0.340061 -20.566406 -0.009143 89.993668 23.571291 5.946862 -16.487320 -9.862597 0.642950 6.928396 -27.822323 4.312555 25.352081 10.524219 0.508720 -0.030344 27.944767 -16.906076 -25.000000 -27.652382 15.045307 68.782310 -70.322197 -3.044845 1.493387 49.367264 -11.727449 -93.786850 31.344997 -5.987078 -25.000000 105.516609 -48.918064 -48.595776 13.129119 1.790719 2.385561 77.656387 41.529533 114.219666 -18.031153 15.843194 6.787536 43.452328 -0.198145 -3.925078 -22.885626 5.335192 -11.081067 -8.953444 -0.047661 -29.165529 40.029640 0.390872 3.751256 -1.786064 -10.834486 -1.404201 
0.340061 66.950661 0.340061 -24.658266 -0.124252 107.596107 22.663900 5.678173 -16.576797 -12.742947 0.996533 6.885297 -30.421024 8.536875 24.945824 10.524219 0.508720 -0.030344 28.596643 -14.801805 -25.000000 -28.459362 21.735075 73.928413 -58.451317 -2.872509 1.781549 49.766212 -11.921310 -94.287529 32.678097 -4.042935 -25.000000 102.938217 -54.999565 -47.822006 10.309373 1.712269 2.398491 77.656387 41.529533 114.219666 -12.036212 15.958848 7.160100 38.067535 -0.510147 -3.690491 -23.192734 5.956466 -12.057184 -6.384057 2.793536 -29.296902 31.020178 0.869133 3.314562 6.463370 -11.121851 -2.094437 
0.340061 72.619530 0.340061 -29.316446 0.093664 125.396614 21.707762 5.400140 -16.670237 -15.809196 1.362519 6.813043 -32.750603 12.875661 24.043043 10.524219 0.508720 -0.030344 29.159166 -12.176348 -25.000000 -29.592150 28.961542 78.474579 -45.705708 -2.622615 2.043544 49.698097 -11.891440 -94.208618 33.987419 -1.752208 -25.000000 95.188583 -59.120853 -41.399723 8.809419 1.673998 2.395701 77.656387 41.529533 114.219666 -7.761895 15.229049 7.436106 33.919445 -0.739635 -3.486844 -23.246714 6.585684 -11.919278 -5.095216 4.433839 -29.439663 24.295986 1.171812 2.936390 13.454980 -11.249021 -2.502484 
0.340061 77.794189 0.340061 -34.262413 0.879768 143.121521 20.713411 5.100182 -16.759981 -18.954332 1.737645 6.729164 -34.832294 17.183840 22.764221 10.524219 0.508720 -0.030344 29.754288 -9.194074 -25.000000 -30.880398 36.482296 82.359215 -32.679798 -2.326021 2.238771 49.303963 -11.703387 -93.701416 35.323448 0.765104 -25.000000 83.057747 -60.749977 -29.921867 8.363415 1.658539 2.400701 77.656387 41.529533 114.219666 -6.064297 13.026608 7.616925 31.605495 -0.856212 -3.358947 -23.324682 7.048238 -9.911130 -5.969249 4.190956 -29.700003 20.859324 1.328107 2.743126 19.040916 -11.166810 -2.492883 
0.340061 82.163811 0.340061 -39.092144 2.358078 160.419418 19.740335 4.806034 -16.837603 -22.081097 2.108708 6.634115 -36.653240 21.338171 21.276863 10.524219 0.508720 -0.030344 30.496716 -6.029774 -25.000000 -32.159206 43.959003 85.612228 -19.981323 -1.987704 2.364179 48.697094 -11.401611 -92.941582 36.739845 3.373217 -25.000000 69.860527 -59.495277 -16.586548 8.721031 1.674308 2.402086 77.656387 41.529533 114.219666 -6.833014 9.369595 7.749527 31.058496 -0.885396 -3.330335 -23.546253 7.396801 -6.102662 -8.970985 2.140036 -30.037378 20.537508 1.331188 2.698277 23.398710 -10.863405 -2.154189 
0.340061 85.339798 0.340061 136.654907 175.567688 -2.960491 18.786108 4.515526 -16.924269 -25.092037 2.453368 6.525230 -38.168224 25.181520 19.752373 10.524219 0.508720 -0.030344 31.379757 -2.918413 -25.000000 -33.270622 51.003452 88.329346 -8.205750 -1.668789 2.409354 48.012547 -11.051999 -92.065956 38.213825 5.917222 -25.000000 59.174137 -55.861820 -5.059533 9.603586 1.693782 2.394276 77.656387 41.529533 114.219666 -9.081301 5.009276 8.005536 31.565866 -0.865999 -3.369318 -23.587055 7.618127 -1.369511 -13.074699 -0.985474 -30.245895 22.211845 1.259438 2.809513 26.648312 -10.334449 -1.565010 
0.340061 86.911079 0.340061 -46.600163 6.907815 -167.276535 17.893242 4.247409 -16.984308 -27.889450 2.770344 6.402841 -39.320675 28.614454 18.361910 10.524219 0.508720 -0.030344 32.396263 -0.034688 -25.000000 -33.988205 57.178013 90.695038 0.971546 -1.408978 2.401890 47.370537 -10.715934 -91.257538 39.716125 8.274188 -25.000000 52.151936 -50.978348 3.334959 10.745726 1.724876 2.393960 77.656387 41.529533 114.219666 -11.853128 0.644190 8.472730 32.445122 -0.817396 -3.408550 -23.115204 7.835481 3.389942 -17.233770 -4.382022 -30.172039 24.716196 1.152232 2.972895 28.976603 -9.657280 -0.902961 
0.340061 86.589005 0.340061 -49.529591 9.622100 -152.948364 17.088390 4.000039 -17.043447 -30.365574 3.050774 6.290528 -39.973312 31.507191 17.309958 10.524219 0.508720 -0.030344 33.509224 2.425977 -25.000000 -34.024281 62.057262 93.020302 10.137317 -1.158884 2.345582 46.914528 -10.463138 -90.666634 41.175465 10.329612 -25.000000 48.154533 -46.018280 8.941153 11.897326 1.761258 2.388508 77.656387 41.529533 114.219666 -14.208398 -2.987829 9.036425 33.001232 -0.796502 -3.449027 -21.766850 8.171312 7.245825 -20.464148 -7.279436 -29.895796 26.916512 1.054632 3.090575 30.532253 -8.930367 -0.265627 
0.340061 84.212669 0.340061 -52.697392 12.400496 -139.852158 16.401857 3.789838 -17.088686 -32.422009 3.278492 6.187777 -40.009361 33.741707 16.786337 10.524219 0.508720 -0.030344 34.635494 4.283860 -25.000000 -32.989361 65.205223 95.665596 15.515195 -1.015021 2.295622 46.726299 -10.361354 -90.426575 42.497547 11.983500 -25.000000 46.218975 -41.862598 12.367763 12.771325 1.789883 2.385319 77.656387 41.529533 114.219666 -15.160618 -5.214257 9.365967 32.502205 -0.820576 -3.451015 -19.258268 8.668097 9.378252 -21.746452 -8.884581 -29.696054 27.639786 1.025342 3.129324 31.468054 -8.269293 0.223737 
0.340061 79.898483 0.340061 -55.617306 14.633726 -127.344154 15.862493 3.617878 -17.124594 -33.960236 3.448939 6.104061 -39.296635 35.141369 16.975250 10.524219 0.508720 -0.030344 35.654224 5.432697 -25.000000 -31.894245 66.623627 97.686760 18.224638 -0.945189 2.269637 46.726299 -10.361354 -90.426575 43.560524 13.112199 -25.000000 45.562431 -39.244465 13.971421 13.129119 1.790719 2.385561 77.656387 41.529533 114.219666 -14.598495 -6.386340 9.362522 30.911022 -0.913327 -3.340050 -15.760462 9.252306 9.985417 -21.031994 -9.409783 -29.637875 26.828485 1.068760 3.079606 31.884157 -7.649762 0.738122 
